<mxfile host="Electron" agent="Mozilla/5.0 (Windows NT 10.0; Win64; x64) AppleWebKit/537.36 (KHTML, like Gecko) draw.io/24.7.5 Chrome/126.0.6478.183 Electron/31.3.0 Safari/537.36" version="24.7.5">
  <diagram name="Página-1" id="u8HXv5CQFw7PcJTBH-40">
    <mxGraphModel dx="1318" dy="626" grid="1" gridSize="10" guides="1" tooltips="1" connect="1" arrows="1" fold="1" page="1" pageScale="1" pageWidth="827" pageHeight="1169" math="0" shadow="0">
      <root>
        <mxCell id="0" />
        <mxCell id="1" parent="0" />
        <mxCell id="_yp4fYKAYpIatXdRcKzD-2" value="Nombre_Cliente" style="ellipse;whiteSpace=wrap;html=1;" parent="1" vertex="1">
          <mxGeometry x="270" y="10" width="120" height="80" as="geometry" />
        </mxCell>
        <mxCell id="tcerWYPfzP1xGE7nUud--3" style="edgeStyle=orthogonalEdgeStyle;rounded=0;orthogonalLoop=1;jettySize=auto;html=1;exitX=1;exitY=1;exitDx=0;exitDy=0;entryX=0;entryY=0.25;entryDx=0;entryDy=0;" parent="1" source="_yp4fYKAYpIatXdRcKzD-3" target="_yp4fYKAYpIatXdRcKzD-11" edge="1">
          <mxGeometry relative="1" as="geometry" />
        </mxCell>
        <mxCell id="_yp4fYKAYpIatXdRcKzD-3" value="Email_Cliente" style="ellipse;whiteSpace=wrap;html=1;" parent="1" vertex="1">
          <mxGeometry x="414" y="10" width="120" height="80" as="geometry" />
        </mxCell>
        <mxCell id="tcerWYPfzP1xGE7nUud--6" style="edgeStyle=orthogonalEdgeStyle;rounded=0;orthogonalLoop=1;jettySize=auto;html=1;exitX=1;exitY=0.5;exitDx=0;exitDy=0;entryX=0;entryY=0.75;entryDx=0;entryDy=0;" parent="1" source="_yp4fYKAYpIatXdRcKzD-4" target="_yp4fYKAYpIatXdRcKzD-11" edge="1">
          <mxGeometry relative="1" as="geometry" />
        </mxCell>
        <mxCell id="_yp4fYKAYpIatXdRcKzD-4" value="Hora_Fin" style="ellipse;whiteSpace=wrap;html=1;" parent="1" vertex="1">
          <mxGeometry x="250" y="120" width="120" height="80" as="geometry" />
        </mxCell>
        <mxCell id="tcerWYPfzP1xGE7nUud--7" style="edgeStyle=orthogonalEdgeStyle;rounded=0;orthogonalLoop=1;jettySize=auto;html=1;exitX=1;exitY=0.5;exitDx=0;exitDy=0;entryX=0.25;entryY=0;entryDx=0;entryDy=0;" parent="1" source="_yp4fYKAYpIatXdRcKzD-5" target="_yp4fYKAYpIatXdRcKzD-11" edge="1">
          <mxGeometry relative="1" as="geometry" />
        </mxCell>
        <mxCell id="_yp4fYKAYpIatXdRcKzD-5" value="Num_Personas" style="ellipse;whiteSpace=wrap;html=1;" parent="1" vertex="1">
          <mxGeometry x="330" y="190" width="120" height="80" as="geometry" />
        </mxCell>
        <mxCell id="_yp4fYKAYpIatXdRcKzD-10" value="Pistas" style="rounded=0;whiteSpace=wrap;html=1;" parent="1" vertex="1">
          <mxGeometry x="1000" y="130" width="120" height="60" as="geometry" />
        </mxCell>
        <mxCell id="_yp4fYKAYpIatXdRcKzD-52" style="edgeStyle=orthogonalEdgeStyle;rounded=0;orthogonalLoop=1;jettySize=auto;html=1;exitX=1;exitY=0.5;exitDx=0;exitDy=0;entryX=0;entryY=0.5;entryDx=0;entryDy=0;" parent="1" source="_yp4fYKAYpIatXdRcKzD-11" target="_yp4fYKAYpIatXdRcKzD-47" edge="1">
          <mxGeometry relative="1" as="geometry" />
        </mxCell>
        <mxCell id="_yp4fYKAYpIatXdRcKzD-11" value="Reserva" style="rounded=0;whiteSpace=wrap;html=1;" parent="1" vertex="1">
          <mxGeometry x="560" y="130" width="120" height="60" as="geometry" />
        </mxCell>
        <mxCell id="_yp4fYKAYpIatXdRcKzD-38" style="edgeStyle=orthogonalEdgeStyle;rounded=0;orthogonalLoop=1;jettySize=auto;html=1;exitX=0;exitY=1;exitDx=0;exitDy=0;entryX=1;entryY=0.25;entryDx=0;entryDy=0;" parent="1" source="_yp4fYKAYpIatXdRcKzD-17" target="_yp4fYKAYpIatXdRcKzD-11" edge="1">
          <mxGeometry relative="1" as="geometry" />
        </mxCell>
        <mxCell id="_yp4fYKAYpIatXdRcKzD-17" value="Hora_Inicio" style="ellipse;whiteSpace=wrap;html=1;" parent="1" vertex="1">
          <mxGeometry x="700" y="10" width="120" height="80" as="geometry" />
        </mxCell>
        <mxCell id="_yp4fYKAYpIatXdRcKzD-36" style="edgeStyle=orthogonalEdgeStyle;rounded=0;orthogonalLoop=1;jettySize=auto;html=1;exitX=0.5;exitY=1;exitDx=0;exitDy=0;entryX=0.5;entryY=0;entryDx=0;entryDy=0;" parent="1" source="_yp4fYKAYpIatXdRcKzD-18" target="_yp4fYKAYpIatXdRcKzD-11" edge="1">
          <mxGeometry relative="1" as="geometry" />
        </mxCell>
        <mxCell id="_yp4fYKAYpIatXdRcKzD-18" value="Fecha_Reserva" style="ellipse;whiteSpace=wrap;html=1;" parent="1" vertex="1">
          <mxGeometry x="560" y="10" width="120" height="80" as="geometry" />
        </mxCell>
        <mxCell id="_yp4fYKAYpIatXdRcKzD-44" style="edgeStyle=orthogonalEdgeStyle;rounded=0;orthogonalLoop=1;jettySize=auto;html=1;exitX=0.5;exitY=0;exitDx=0;exitDy=0;entryX=0.75;entryY=1;entryDx=0;entryDy=0;" parent="1" source="_yp4fYKAYpIatXdRcKzD-21" target="_yp4fYKAYpIatXdRcKzD-11" edge="1">
          <mxGeometry relative="1" as="geometry" />
        </mxCell>
        <mxCell id="_yp4fYKAYpIatXdRcKzD-21" value="&lt;b&gt;&lt;u&gt;ID_RESERVA&lt;/u&gt;&lt;/b&gt;" style="ellipse;whiteSpace=wrap;html=1;" parent="1" vertex="1">
          <mxGeometry x="680" y="230" width="120" height="80" as="geometry" />
        </mxCell>
        <mxCell id="_yp4fYKAYpIatXdRcKzD-46" style="edgeStyle=orthogonalEdgeStyle;rounded=0;orthogonalLoop=1;jettySize=auto;html=1;exitX=0.5;exitY=0;exitDx=0;exitDy=0;entryX=0.25;entryY=1;entryDx=0;entryDy=0;" parent="1" source="_yp4fYKAYpIatXdRcKzD-23" target="_yp4fYKAYpIatXdRcKzD-11" edge="1">
          <mxGeometry relative="1" as="geometry" />
        </mxCell>
        <mxCell id="_yp4fYKAYpIatXdRcKzD-23" value="Estado" style="ellipse;whiteSpace=wrap;html=1;" parent="1" vertex="1">
          <mxGeometry x="470" y="230" width="120" height="80" as="geometry" />
        </mxCell>
        <mxCell id="_yp4fYKAYpIatXdRcKzD-53" style="edgeStyle=orthogonalEdgeStyle;rounded=0;orthogonalLoop=1;jettySize=auto;html=1;exitX=1;exitY=0.5;exitDx=0;exitDy=0;entryX=0;entryY=0.5;entryDx=0;entryDy=0;" parent="1" source="_yp4fYKAYpIatXdRcKzD-47" target="_yp4fYKAYpIatXdRcKzD-10" edge="1">
          <mxGeometry relative="1" as="geometry" />
        </mxCell>
        <mxCell id="_yp4fYKAYpIatXdRcKzD-47" value="Tener" style="rhombus;whiteSpace=wrap;html=1;" parent="1" vertex="1">
          <mxGeometry x="800" y="120" width="80" height="80" as="geometry" />
        </mxCell>
        <mxCell id="_yp4fYKAYpIatXdRcKzD-55" style="edgeStyle=orthogonalEdgeStyle;rounded=0;orthogonalLoop=1;jettySize=auto;html=1;exitX=0.5;exitY=1;exitDx=0;exitDy=0;" parent="1" source="_yp4fYKAYpIatXdRcKzD-48" target="_yp4fYKAYpIatXdRcKzD-10" edge="1">
          <mxGeometry relative="1" as="geometry" />
        </mxCell>
        <mxCell id="_yp4fYKAYpIatXdRcKzD-48" value="Nombre" style="ellipse;whiteSpace=wrap;html=1;" parent="1" vertex="1">
          <mxGeometry x="1000" y="10" width="120" height="80" as="geometry" />
        </mxCell>
        <mxCell id="_yp4fYKAYpIatXdRcKzD-56" style="edgeStyle=orthogonalEdgeStyle;rounded=0;orthogonalLoop=1;jettySize=auto;html=1;exitX=0;exitY=1;exitDx=0;exitDy=0;entryX=1;entryY=0.25;entryDx=0;entryDy=0;" parent="1" source="_yp4fYKAYpIatXdRcKzD-49" target="_yp4fYKAYpIatXdRcKzD-10" edge="1">
          <mxGeometry relative="1" as="geometry" />
        </mxCell>
        <mxCell id="_yp4fYKAYpIatXdRcKzD-49" value="Ubicación" style="ellipse;whiteSpace=wrap;html=1;" parent="1" vertex="1">
          <mxGeometry x="1160" y="10" width="120" height="80" as="geometry" />
        </mxCell>
        <mxCell id="_yp4fYKAYpIatXdRcKzD-50" value="&lt;b&gt;&lt;u&gt;ID_PISTA&lt;/u&gt;&lt;/b&gt;" style="ellipse;whiteSpace=wrap;html=1;" parent="1" vertex="1">
          <mxGeometry x="980" y="230" width="120" height="80" as="geometry" />
        </mxCell>
        <mxCell id="_yp4fYKAYpIatXdRcKzD-54" style="edgeStyle=orthogonalEdgeStyle;rounded=0;orthogonalLoop=1;jettySize=auto;html=1;exitX=0.5;exitY=0;exitDx=0;exitDy=0;entryX=0.5;entryY=1;entryDx=0;entryDy=0;" parent="1" source="_yp4fYKAYpIatXdRcKzD-51" target="_yp4fYKAYpIatXdRcKzD-10" edge="1">
          <mxGeometry relative="1" as="geometry" />
        </mxCell>
        <mxCell id="_yp4fYKAYpIatXdRcKzD-51" value="Precio_Por_Hora" style="ellipse;whiteSpace=wrap;html=1;" parent="1" vertex="1">
          <mxGeometry x="1160" y="190" width="120" height="80" as="geometry" />
        </mxCell>
        <mxCell id="_yp4fYKAYpIatXdRcKzD-57" style="edgeStyle=orthogonalEdgeStyle;rounded=0;orthogonalLoop=1;jettySize=auto;html=1;exitX=0.5;exitY=0;exitDx=0;exitDy=0;entryX=0.178;entryY=1.044;entryDx=0;entryDy=0;entryPerimeter=0;" parent="1" source="_yp4fYKAYpIatXdRcKzD-50" target="_yp4fYKAYpIatXdRcKzD-10" edge="1">
          <mxGeometry relative="1" as="geometry" />
        </mxCell>
        <mxCell id="_yp4fYKAYpIatXdRcKzD-80" value="(1:M )" style="text;html=1;align=center;verticalAlign=middle;whiteSpace=wrap;rounded=0;" parent="1" vertex="1">
          <mxGeometry x="700" y="130" width="60" height="30" as="geometry" />
        </mxCell>
        <mxCell id="_yp4fYKAYpIatXdRcKzD-81" value="(1:M )&amp;nbsp;" style="text;html=1;align=center;verticalAlign=middle;whiteSpace=wrap;rounded=0;" parent="1" vertex="1">
          <mxGeometry x="920" y="130" width="60" height="30" as="geometry" />
        </mxCell>
        <mxCell id="tcerWYPfzP1xGE7nUud--9" style="edgeStyle=orthogonalEdgeStyle;rounded=0;orthogonalLoop=1;jettySize=auto;html=1;exitX=0.5;exitY=0;exitDx=0;exitDy=0;entryX=0.5;entryY=1;entryDx=0;entryDy=0;" parent="1" source="tcerWYPfzP1xGE7nUud--1" target="_yp4fYKAYpIatXdRcKzD-11" edge="1">
          <mxGeometry relative="1" as="geometry" />
        </mxCell>
        <mxCell id="tcerWYPfzP1xGE7nUud--1" value="Fecha_Creación" style="ellipse;whiteSpace=wrap;html=1;" parent="1" vertex="1">
          <mxGeometry x="570" y="300" width="120" height="80" as="geometry" />
        </mxCell>
        <mxCell id="tcerWYPfzP1xGE7nUud--8" style="edgeStyle=orthogonalEdgeStyle;rounded=0;orthogonalLoop=1;jettySize=auto;html=1;exitX=0.5;exitY=1;exitDx=0;exitDy=0;entryX=0.055;entryY=0.024;entryDx=0;entryDy=0;entryPerimeter=0;" parent="1" source="_yp4fYKAYpIatXdRcKzD-2" target="_yp4fYKAYpIatXdRcKzD-11" edge="1">
          <mxGeometry relative="1" as="geometry" />
        </mxCell>
        <mxCell id="xyv1NJgKtecKDEJ_JUCx-2" value="(1:M )" style="text;html=1;align=center;verticalAlign=middle;whiteSpace=wrap;rounded=0;" vertex="1" parent="1">
          <mxGeometry x="810" y="80" width="60" height="30" as="geometry" />
        </mxCell>
      </root>
    </mxGraphModel>
  </diagram>
</mxfile>
